<?xml version="1.0" encoding="UTF-8"?>
<svg version="1.1" xmlns="http://www.w3.org/2000/svg" width="422" height="417">
<path d="M0 0 C2.59379453 1.29689727 2.77129052 2.37711544 3.88037109 5.02124023 C4.40398224 6.24664017 4.40398224 6.24664017 4.93817139 7.49679565 C5.28857483 8.32285309 5.63897827 9.14891052 6 10 C6.63293164 11.4162091 7.27033071 12.8304317 7.91259766 14.24243164 C8.39653992 15.31121048 8.39653992 15.31121048 8.89025879 16.40158081 C9.22811401 17.14691071 9.56596924 17.8922406 9.9140625 18.66015625 C10.67468016 20.33941953 11.43525783 22.01870093 12.19580078 23.69799805 C12.59188538 24.57241547 12.98796997 25.44683289 13.39605713 26.3477478 C14.64409978 29.10469169 15.89042013 31.86240804 17.13623047 34.62036133 C21.05297318 43.28951723 24.97481631 51.95602232 28.93423462 60.60578918 C30.60438465 64.25715671 32.26763917 67.91164189 33.92987061 71.56661987 C34.72191814 73.30355452 35.51717033 75.03903166 36.31573486 76.77297974 C37.4296928 79.19263477 38.53239377 81.61713278 39.6328125 84.04296875 C39.96108032 84.74849884 40.28934814 85.45402893 40.62756348 86.18093872 C42.54478232 90.44365151 43.66527827 94.27718907 44 99 C42.18324807 103.7715447 38.99888963 105.46184244 34.5625 107.5 C33.8705957 107.83128906 33.17869141 108.16257812 32.46582031 108.50390625 C29.98430547 109.68487451 27.4922492 110.84186641 25 112 C22.99323131 112.94736976 20.98673697 113.89532083 18.98046875 114.84375 C3.92290605 121.92433638 -11.25703478 128.72154241 -26.47753906 135.44335938 C-27.20451996 135.76486969 -27.93150085 136.08638 -28.68051147 136.41763306 C-30.10600621 137.04706523 -31.53244318 137.67436833 -32.95986938 138.29940796 C-36.24682287 139.74542724 -39.49851649 141.22791861 -42.70751953 142.84033203 C-44.40110596 143.67927002 -44.40110596 143.67927002 -46.12890625 144.53515625 C-47.58598999 145.28551147 -47.58598999 145.28551147 -49.07250977 146.05102539 C-52.77924348 147.2525994 -55.23701682 146.89809198 -59 146 C-66.7810446 139.9310047 -68.80581923 129.39967663 -70.3125 120.0625 C-71.78650101 107.33506824 -72.34518746 93.25963606 -68 81 C-65.05044364 77.78416425 -61.84349251 75.98950013 -58 74 C-52.78572436 69.57920109 -50.13305348 64.39916045 -48 58 C-48.05965401 56.15072577 -48.12299305 54.3013572 -48.21899414 52.45361328 C-48.68489505 41.78533406 -48.68489505 41.78533406 -45.5625 37.625 C-44.40516033 36.38774878 -43.21389179 35.18181742 -42 34 C-40.43300988 32.23313869 -38.87070075 30.46211752 -37.3125 28.6875 C-35.88443015 27.11637652 -34.44798346 25.55278988 -33 24 C-32.45730469 23.40832031 -31.91460937 22.81664062 -31.35546875 22.20703125 C-30 21 -30 21 -28 21 C-27.505 19.515 -27.505 19.515 -27 18 C-25.13930706 16.32923425 -23.30255965 14.81404595 -21.3125 13.3125 C-20.74104248 12.87768311 -20.16958496 12.44286621 -19.58081055 11.99487305 C-15.31629558 8.82266635 -10.91057309 5.97580885 -6.3125 3.3125 C-5.41301636 2.78619995 -5.41301636 2.78619995 -4.49536133 2.24926758 C-3.03325015 1.43089819 -1.51966018 0.7057836 0 0 Z M-6.32421875 106.45703125 C-8.11375977 107.26043945 -8.11375977 107.26043945 -9.93945312 108.08007812 C-10.5544165 108.36439697 -11.16937988 108.64871582 -11.80297852 108.94165039 C-13.68612002 109.8118623 -15.57721068 110.66234734 -17.47070312 111.50976562 C-23.68350804 114.07664046 -23.68350804 114.07664046 -29 118 C-29.16687448 120.58354218 -29.16687448 120.58354218 -29 123 C-26.85083047 124.29563034 -26.85083047 124.29563034 -24 125 C-20.77352035 124.11574099 -20.77352035 124.11574099 -17.45703125 122.421875 C-16.84736008 122.13523987 -16.2376889 121.84860474 -15.60954285 121.55328369 C-13.66889695 120.63522762 -11.74130788 119.69263057 -9.8125 118.75 C-8.50397988 118.12997872 -7.19474114 117.51147163 -5.88476562 116.89453125 C0.49755748 114.10572885 0.49755748 114.10572885 6 110 C5.67958603 107.39719432 5.67958603 107.39719432 5 105 C0.42902241 103.58061628 -2.03351381 104.51154454 -6.32421875 106.45703125 Z " fill="#605CFE" transform="translate(253,126)"/>
<path d="M0 0 C4.98186304 2.78057472 6.64240152 7.05359869 9 12 C9.45157471 12.94117676 9.90314941 13.88235352 10.3684082 14.85205078 C11.86640875 17.99797686 13.34131718 21.15395275 14.8125 24.3125 C15.5849707 25.93768555 15.5849707 25.93768555 16.37304688 27.59570312 C16.85451172 28.63275391 17.33597656 29.66980469 17.83203125 30.73828125 C18.27264893 31.67712158 18.7132666 32.61596191 19.16723633 33.58325195 C20 36 20 36 19 39 C16.59827479 40.3472364 14.24281534 41.53495091 11.75 42.6875 C0.23750051 48.23656079 -10.26834451 54.64950932 -20 63 C-20.82113281 63.69867188 -21.64226562 64.39734375 -22.48828125 65.1171875 C-30.11524995 71.78337165 -37.39289966 78.96384836 -43 87.4375 C-45.83912379 91.39142099 -48.98118083 92.45960408 -53.4765625 94.0390625 C-61.77905575 97.20069306 -65.2004444 102.35852877 -68.7734375 110.29296875 C-70 113 -70 113 -72 116 C-76.35278624 110.16497 -79.02760912 103.57194728 -81.9375 96.9375 C-83.08303059 94.33913391 -84.2308925 91.74180099 -85.37890625 89.14453125 C-85.67249023 88.47867004 -85.96607422 87.81280884 -86.26855469 87.12677002 C-88.3804326 82.35227013 -90.56448599 77.61511702 -92.77734375 72.88671875 C-93.68433245 70.93082092 -94.58963888 68.9741553 -95.49417114 67.01712036 C-96.07727788 65.76454091 -96.66629776 64.51469575 -97.26144409 63.26779175 C-98.09371712 61.52189834 -98.90280347 59.76500958 -99.7109375 58.0078125 C-100.17806152 57.01410645 -100.64518555 56.02040039 -101.12646484 54.99658203 C-102.21181545 51.27338657 -101.89836642 48.74978814 -101 45 C-96.16192696 39.59611842 -89.38726643 37.12122565 -82.875 34.1875 C-81.64978775 33.62772254 -80.42486029 33.06732141 -79.20019531 32.50634766 C-67.55457918 27.18899941 -55.84773568 22.00281681 -44.13354492 16.83862305 C-37.26236939 13.80656096 -30.41096878 10.74977137 -23.62109375 7.5390625 C-22.52120117 7.02102051 -21.42130859 6.50297852 -20.28808594 5.96923828 C-18.29229639 5.0235169 -16.30157526 4.06698506 -14.31738281 3.09716797 C-9.35895255 0.75137171 -5.61664971 -0.69484326 0 0 Z M-48.0625 28.3125 C-49.7340918 29.06176758 -49.7340918 29.06176758 -51.43945312 29.82617188 C-52.50228516 30.31279297 -53.56511719 30.79941406 -54.66015625 31.30078125 C-55.63605713 31.74591064 -56.61195801 32.19104004 -57.61743164 32.6496582 C-60.26961182 33.91652152 -60.26961182 33.91652152 -62 37 C-59.33030446 38.02844716 -58.12997156 38.04097726 -55.35864258 37.16723633 C-52.16916486 35.73051336 -48.98409543 34.28839094 -45.8125 32.8125 C-44.69423828 32.31685547 -43.57597656 31.82121094 -42.42382812 31.31054688 C-41.36228516 30.82263672 -40.30074219 30.33472656 -39.20703125 29.83203125 C-37.74487183 29.16264526 -37.74487183 29.16264526 -36.25317383 28.47973633 C-33.83493447 27.20707796 -33.83493447 27.20707796 -33.17456055 24.82299805 C-33.11695557 24.22140869 -33.05935059 23.61981934 -33 23 C-38.41145886 23 -43.21139177 26.0798077 -48.0625 28.3125 Z " fill="#45A8FE" transform="translate(220,58)"/>
<path d="M0 0 C0 0.99 0 1.98 0 3 C-0.94915283 3.00616333 -0.94915283 3.00616333 -1.91748047 3.01245117 C-26.19283773 3.28686062 -47.57434706 8.37235849 -68 22 C-69.52753906 22.97259766 -69.52753906 22.97259766 -71.0859375 23.96484375 C-85.66546512 33.5606616 -102.35863549 48.00025287 -110 64 C-110.12009058 66.73723703 -109.72872391 68.44552195 -108.74609375 70.984375 C-107.25469061 75.01350601 -108.17279002 78.93840414 -109.75390625 82.87890625 C-112.05742027 87.34136228 -114.82672952 90.21781968 -119 93 C-122.875 93.8125 -122.875 93.8125 -126 94 C-134.92628878 122.87519175 -136.49609746 151.93499422 -124 180 C-131.86288509 176.94023476 -136.96765386 166.67748852 -140.3125 159.375 C-148.50275678 138.52292563 -148.96016751 117.79228905 -143.875 96.08984375 C-142.75081671 91.12971954 -142.28660811 87.66271232 -145 83.1875 C-147.20114565 78.99746204 -147.88990854 75.67656016 -147 71 C-145.19511031 65.53463179 -142.22986727 60.72815756 -137 58 C-135.21537851 57.59278928 -133.42257093 57.22059109 -131.625 56.875 C-125.39841777 55.38566884 -123.32947538 52.18264355 -119.94921875 46.96484375 C-116.80415231 42.18106533 -112.9282784 38.14580522 -109 34 C-108.16726562 33.1028125 -107.33453125 32.205625 -106.4765625 31.28125 C-78.18198702 1.7420451 -39.38666545 -9.68453684 0 0 Z " fill="#AADEFF" transform="translate(305,103)"/>
<path d="M0 0 C5.11265169 2.3102062 6.75213103 5.76399934 8.890625 10.68359375 C9.23636566 11.4460994 9.58210632 12.20860504 9.93832397 12.99421692 C11.05650953 15.46916377 12.15327143 17.95298041 13.25 20.4375 C14.01994203 22.1519874 14.79126867 23.86585366 15.56396484 25.57910156 C17.41311289 29.68676675 19.24669734 33.80112561 21.07434082 37.918396 C22.58286869 41.31074354 24.11306662 44.69320604 25.64355469 48.07568359 C26.29599524 49.52111534 26.94510641 50.96805468 27.59082031 52.41650391 C29.62615551 56.98175092 31.70186344 61.52669182 33.80502319 66.06100464 C35.19411755 69.05791372 36.57623843 72.05801974 37.95819092 75.05822754 C38.64568908 76.54584001 39.33642025 78.03196316 40.03057861 79.51647949 C41.0079514 81.60747317 41.97373332 83.70348867 42.9375 85.80078125 C43.23183929 86.42292007 43.52617859 87.0450589 43.82943726 87.68605042 C45.69318801 91.77942489 46.68474945 95.51141649 47 100 C45.63571607 102.92346557 44.27249091 104.72750909 42 107 C39.875 106.625 39.875 106.625 38 106 C38.33331329 105.4275354 38.66662659 104.8550708 39.01004028 104.26525879 C40.89038881 99.96258267 39.76234454 95.2967959 38.31842041 90.9465332 C37.46644375 88.89660146 36.53966306 86.90329575 35.5703125 84.90625 C35.22401794 84.16508942 34.87772339 83.42392883 34.52093506 82.66030884 C33.4005201 80.26790364 32.26275031 77.88420212 31.125 75.5 C29.95335182 73.00729473 28.78644694 70.51240506 27.61978149 68.0173645 C26.84324696 66.35738966 26.06523593 64.69810471 25.28573608 63.03952026 C22.03532593 56.11585769 18.92377761 49.14005224 15.875 42.125 C13.02611077 35.59172999 10.15422616 29.07690162 7.125 22.625 C6.32449219 20.91570312 6.32449219 20.91570312 5.5078125 19.171875 C4.49873176 17.04914557 3.47249435 14.93449108 2.4296875 12.828125 C1.72199219 11.36632812 1.72199219 11.36632812 1 9.875 C0.5875 9.04742187 0.175 8.21984375 -0.25 7.3671875 C-1.14743159 4.53466903 -0.80407248 2.8243046 0 0 Z " fill="#78A9FE" transform="translate(257,124)"/>
<path d="M0 0 C1.03769531 -0.02578125 2.07539063 -0.0515625 3.14453125 -0.078125 C6.60276691 0.29477846 8.4077347 1.1968751 11.1875 3.25 C14.1875 7.49137931 14.1875 7.49137931 14.1875 10.25 C12.7504191 10.30422947 11.31274538 10.34289723 9.875 10.375 C9.07449219 10.39820313 8.27398437 10.42140625 7.44921875 10.4453125 C5.1875 10.25 5.1875 10.25 2.1875 8.25 C-0.92554814 8.40760028 -0.92554814 8.40760028 -3.8125 9.25 C-5.21185013 12.04870027 -5.06515405 14.15498792 -4.8125 17.25 C-3.83201062 19.31402685 -3.83201062 19.31402685 -1.8125 20.25 C1.33671909 20.01716851 1.33671909 20.01716851 4.1875 19.25 C2.2075 18.92 0.2275 18.59 -1.8125 18.25 C-1.85504356 16.25045254 -1.85330783 14.24958364 -1.8125 12.25 C-0.8125 11.25 -0.8125 11.25 2.56640625 11.15234375 C3.96097077 11.15901631 5.35551743 11.17097468 6.75 11.1875 C7.46091797 11.19201172 8.17183594 11.19652344 8.90429688 11.20117188 C10.66540013 11.21299136 12.42646036 11.23092737 14.1875 11.25 C15.78129309 16.08633765 14.38862658 19.80698524 12.1875 24.25 C8.4982845 28.12840603 5.27613183 28.52296753 0.125 28.6875 C-4.43967113 28.68162526 -7.09246703 27.9247881 -10.8125 25.25 C-13.90729685 21.38150394 -14.97133489 17.16453836 -14.8125 12.25 C-13.32968162 7.56741564 -11.58264643 4.4120583 -7.8125 1.25 C-5.13594199 -0.08827901 -2.98815948 0.04421444 0 0 Z " fill="#8931FE" transform="translate(230.8125,303.75)"/>
<path d="M0 0 C4.031728 2.2375035 6.53712295 4.61136885 8 9 C8.50171564 15.12093081 8.08833623 18.1167095 4 23 C0.70512021 26.29487979 -2.3902584 26.84373757 -7 27 C-12.12660054 25.43595238 -15.33588979 23.71342575 -18 19 C-19.34837821 14.34196618 -19.64399443 10.4746655 -17.3125 6.125 C-12.5105284 -0.36415081 -7.86412328 -1.39757339 0 0 Z " fill="#647AFE" transform="translate(150,188)"/>
<path d="M0 0 C3.91271318 1.78474636 5.47414901 3.22875187 7.875 6.75 C9.46868181 11.35396968 9.97077465 15.37995229 8.2734375 19.9609375 C6.1778175 23.99883946 4.03192375 26.04460351 0 28 C-2.9375 28.3984375 -2.9375 28.3984375 -6 28.375 C-7.010625 28.38273437 -8.02125 28.39046875 -9.0625 28.3984375 C-13.1227334 27.84771435 -15.80536486 26.47494059 -18.3984375 23.2734375 C-21.14622195 17.93174452 -21.54745071 13.82242246 -20 8 C-16.19774189 -0.74519365 -8.51293278 -1.02662739 0 0 Z M-11 9 C-12.43735246 11.87470493 -12.38172649 13.81894588 -12 17 C-10.00979883 19.65884601 -10.00979883 19.65884601 -7 21 C-3.7401469 20.52490784 -3.7401469 20.52490784 -1 19 C0.38550197 16.22899606 0.1877467 14.0665294 0 11 C-1.66348833 7.8464189 -1.66348833 7.8464189 -4.375 7.1875 C-7.32703618 6.97664027 -8.57434783 7.35402174 -11 9 Z " fill="#872DFE" transform="translate(119,304)"/>
<path d="M0 0 C3.87263454 3.67900281 5.63113522 7.05061904 5.875 12.375 C5.63113522 17.69938096 3.87263454 21.07099719 0 24.75 C-4.89716647 27.02368443 -9.18589422 27.04129461 -14.5 26.375 C-18.67389905 24.68767911 -21.12698542 22.18877343 -23.5 18.375 C-24.96489901 12.32008409 -24.61420432 8.95909051 -21.5 3.375 C-16.09164515 -3.04742138 -7.38094487 -3.42686726 0 0 Z M-13.25 7.5 C-15.80889128 10.17690079 -15.80889128 10.17690079 -15.5625 13.5 C-14.6782411 16.39365916 -14.6782411 16.39365916 -12.8125 18.375 C-10.40781926 19.68779309 -10.40781926 19.68779309 -7.3125 18.625 C-4.647331 17.64199069 -4.647331 17.64199069 -3.5 16.375 C-3.26954094 13.51730771 -3.08442681 11.17169524 -3.5 8.375 C-5.17256616 6.26498841 -5.17256616 6.26498841 -7.5 5.375 C-10.68358411 5.06927625 -10.68358411 5.06927625 -13.25 7.5 Z " fill="#862BFE" transform="translate(352.5,305.625)"/>
<path d="M0 0 C8 0 8 0 10.3125 2.1875 C10.869375 3.115625 11.42625 4.04375 12 5 C12.5775 5.928125 13.155 6.85625 13.75 7.8125 C14.1625 8.534375 14.575 9.25625 15 10 C15.33 6.7 15.66 3.4 16 0 C18.97 0 21.94 0 25 0 C25 8.58 25 17.16 25 26 C17 26 17 26 14.46875 23.8125 C13.8190625 22.884375 13.169375 21.95625 12.5 21 C11.8296875 20.071875 11.159375 19.14375 10.46875 18.1875 C9.74171875 17.1046875 9.74171875 17.1046875 9 16 C8.67 19.3 8.34 22.6 8 26 C5.36 26 2.72 26 0 26 C0 17.42 0 8.84 0 0 Z " fill="#862CFE" transform="translate(185,305)"/>
<path d="M0 0 C2.701875 -0.061875 5.40375 -0.12375 8.1875 -0.1875 C9.02949951 -0.21481201 9.87149902 -0.24212402 10.73901367 -0.27026367 C16.32713188 -0.33203652 19.4487839 0.81324334 23.75 4.5 C26.34453698 7.61344438 26.2728305 11.09748256 26.22265625 15.00390625 C25.7553073 19.19364861 23.16035137 22.36637386 20 25 C17.29283758 25.90238747 15.76223232 26.11851302 12.98828125 26.09765625 C11.96408081 26.09390991 11.96408081 26.09390991 10.91918945 26.09008789 C10.05898193 26.08098389 9.19877441 26.07187988 8.3125 26.0625 C4.1978125 26.0315625 4.1978125 26.0315625 0 26 C0 17.42 0 8.84 0 0 Z M9 7 C8.67 10.63 8.34 14.26 8 18 C12.64368796 19.43798988 12.64368796 19.43798988 15.3125 17.9375 C17.26252034 16.04015703 17.26252034 16.04015703 17.5 13 C17.2755903 9.94892148 17.2755903 9.94892148 15.25 8.125 C12.82297795 6.7018576 12.82297795 6.7018576 9 7 Z " fill="#8326FE" transform="translate(135,305)"/>
<path d="M0 0 C2.701875 -0.061875 5.40375 -0.12375 8.1875 -0.1875 C9.02949951 -0.21481201 9.87149902 -0.24212402 10.73901367 -0.27026367 C16.32713188 -0.33203652 19.4487839 0.81324334 23.75 4.5 C26.34414423 7.61297308 26.28249645 11.10069383 26.2109375 15.0078125 C25.75398685 19.32345755 23.67454594 21.44062044 20.4375 24.125 C16.08049771 26.5015467 12.97176201 26.46191105 8.125 26.25 C5.44375 26.1675 2.7625 26.085 0 26 C0 17.42 0 8.84 0 0 Z M9 7 C7.79727181 9.40545638 7.89928528 10.94996953 7.9375 13.625 C7.94652344 14.44226563 7.95554687 15.25953125 7.96484375 16.1015625 C7.97644531 16.72804688 7.98804688 17.35453125 8 18 C10.97788882 18.90991047 12.43497994 19.25960381 15.3125 17.9375 C17.26252034 16.04015703 17.26252034 16.04015703 17.5 13 C17.2755903 9.94892148 17.2755903 9.94892148 15.25 8.125 C12.82297795 6.7018576 12.82297795 6.7018576 9 7 Z " fill="#8222FE" transform="translate(265,305)"/>
<path d="M0 0 C4.19140823 1.87116439 6.05921911 3.64366983 7.875 7.75 C8.24625 8.8225 8.6175 9.895 9 11 C0.40763835 11.49571317 0.40763835 11.49571317 -4 8 C-7.19235272 8.22573891 -7.19235272 8.22573891 -10 9 C-10 12.3 -10 15.6 -10 19 C-7.18263828 19.78260048 -5.54030762 20.19511109 -2.75 19.1875 C-0.84925076 18.10600632 -0.84925076 18.10600632 0 16 C2.64 16 5.28 16 8 16 C8.33 16.99 8.66 17.98 9 19 C6.67757242 23.2875586 4.59834304 26.23893245 0 28 C-5.29148659 28.6553676 -9.59413408 28.62761871 -14.5 26.4375 C-18.04890903 22.97731369 -19.88274059 19.80445411 -20.09375 14.7578125 C-19.74364189 9.55870704 -18.4501029 6.04154911 -15 2 C-10.34885003 -0.93597536 -5.31177253 -0.60815946 0 0 Z " fill="#882FFE" transform="translate(84,304)"/>
<path d="M0 0 C2.64 0 5.28 0 8 0 C8.33 6.27 8.66 12.54 9 19 C10.65 18.67 12.3 18.34 14 18 C14.495 9.09 14.495 9.09 15 0 C17.97 0 20.94 0 24 0 C24.08115993 3.06303578 24.14057409 6.12390815 24.1875 9.1875 C24.21263672 10.05181641 24.23777344 10.91613281 24.26367188 11.80664062 C24.31985702 16.6947481 24.27688877 20.08982486 21 24 C17.9573561 26.93972148 15.7515071 27.43169 11.5625 27.4375 C7.73819421 27.34048824 6.22673512 27.13604107 2.875 25.125 C0.10215962 21.98244757 -0.12236142 20.31199564 -0.09765625 16.2109375 C-0.09443359 15.26992188 -0.09121094 14.32890625 -0.08789062 13.359375 C-0.07951172 12.37453125 -0.07113281 11.3896875 -0.0625 10.375 C-0.05798828 9.38242187 -0.05347656 8.38984375 -0.04882812 7.3671875 C-0.03702145 4.9113984 -0.020554 2.45572896 0 0 Z " fill="#8528FE" transform="translate(298,305)"/>
<path d="M0 0 C3.09891717 1.92951446 5.41923353 3.4028922 6.703125 6.93359375 C7.31145532 10.43149311 7.2076751 12.50813793 5.8125 15.8125 C1.7637987 20.69886364 1.7637987 20.69886364 -2.08203125 21.35546875 C-6.57997341 21.63146188 -8.3965603 21.49029476 -12 18.5625 C-12.66 17.716875 -13.32 16.87125 -14 16 C-14.33 15.67 -14.66 15.34 -15 15 C-15.56601461 10.50899885 -15.59239688 7.03120939 -13.3125 3.0625 C-8.96974496 -0.81076801 -5.62470829 -1.72184948 0 0 Z " fill="#775FFE" transform="translate(281,116)"/>
<path d="M0 0 C2.97 0 5.94 0 9 0 C9 8.58 9 17.16 9 26 C6.03 26 3.06 26 0 26 C0 17.42 0 8.84 0 0 Z " fill="#8B32FE" transform="translate(168,305)"/>
<path d="M0 0 C3.66180272 0.24966837 5.46215264 0.42215502 8.01245117 3.16210938 C11.1745753 7.67709904 13.25670008 12.61243519 15.48364258 17.63818359 C16.31324292 19.50166878 17.1646699 21.35411938 18.01757812 23.20703125 C18.54416016 24.38652344 19.07074219 25.56601563 19.61328125 26.78125 C20.09579346 27.85439453 20.57830566 28.92753906 21.07543945 30.03320312 C22.06705446 33.21516922 21.96735612 34.85381883 21 38 C19.515 38.495 19.515 38.495 18 39 C17.52578613 37.96069336 17.05157227 36.92138672 16.56298828 35.85058594 C14.80069089 31.98876455 13.03744986 28.12737463 11.27392578 24.26611328 C10.51129896 22.59598323 9.7489269 20.92573682 8.98681641 19.25537109 C7.89032129 16.85223121 6.79290582 14.44951346 5.6953125 12.046875 C5.3556546 11.30193787 5.0159967 10.55700073 4.66604614 9.78948975 C3.16178765 6.49879123 1.6537161 3.219234 0 0 Z " fill="#9E50FE" transform="translate(223,57)"/>
<path d="M0 0 C2.4375 1.5625 2.4375 1.5625 4 4 C4.0625 7.5625 4.0625 7.5625 3 11 C0.8125 13.0625 0.8125 13.0625 -2 14 C-5.1875 13.375 -5.1875 13.375 -8 12 C-10 9 -10 9 -9.8125 5.4375 C-8.47838541 -0.20683097 -5.29818245 -0.64875703 0 0 Z " fill="#67B5FE" transform="translate(150,69)"/>
<path d="M0 0 C1.32 0 2.64 0 4 0 C4.66 1.32 5.32 2.64 6 4 C6.33 2.68 6.66 1.36 7 0 C8.32 0.33 9.64 0.66 11 1 C11 4.96 11 8.92 11 13 C9.35 13 7.7 13 6 13 C5.34 11.68 4.68 10.36 4 9 C3.67 10.32 3.34 11.64 3 13 C2.01 13 1.02 13 0 13 C0 8.71 0 4.42 0 0 Z " fill="#C09BFE" transform="translate(179,343)"/>
<path d="M0 0 C3.08218937 -0.39138913 5.05453113 -0.63718306 8 0 C10.0625 2.125 10.0625 2.125 11 5 C10.78233633 8.70028236 10.64508959 10.35491041 8 13 C1.99541284 13.54587156 1.99541284 13.54587156 -0.9375 11.9375 C-2.5957539 8.91362524 -2.30144019 6.37613017 -2 3 C-1.34 2.01 -0.68 1.02 0 0 Z M3 2 C0.71271266 3.83883881 0.71271266 3.83883881 0.875 6.625 C0.91625 7.40875 0.9575 8.1925 1 9 C2.98 9.99 2.98 9.99 5 11 C7.28728734 9.16116119 7.28728734 9.16116119 7.125 6.375 C7.08375 5.59125 7.0425 4.8075 7 4 C5.68 3.34 4.36 2.68 3 2 Z " fill="#9253FE" transform="translate(162,343)"/>
<path d="M0 0 C2 2.125 2 2.125 3 5 C2.78233633 8.70028236 2.64508959 10.35491041 0 13 C-6.00458716 13.54587156 -6.00458716 13.54587156 -8.9375 11.9375 C-10.6140629 8.88023824 -10.36528977 6.4093712 -10 3 C-7.78370962 -1.0414707 -4.19103364 -0.59871909 0 0 Z M-5 2 C-7.28728734 3.83883881 -7.28728734 3.83883881 -7.125 6.625 C-7.08375 7.40875 -7.0425 8.1925 -7 9 C-5.02 9.99 -5.02 9.99 -3 11 C-0.71271266 9.16116119 -0.71271266 9.16116119 -0.875 6.375 C-0.91625 5.59125 -0.9575 4.8075 -1 4 C-2.32 3.34 -3.64 2.68 -5 2 Z " fill="#A177FE" transform="translate(262,343)"/>
<path d="M0 0 C2.97 0 5.94 0 9 0 C10.87598995 3.86233226 10.97771536 5.87186846 10 10 C10.33 10.99 10.66 11.98 11 13 C9.68 13 8.36 13 7 13 C6.71125 12.360625 6.4225 11.72125 6.125 11.0625 C5.17176549 8.84793921 5.17176549 8.84793921 3 8 C3.33 9.65 3.66 11.3 4 13 C2.68 13 1.36 13 0 13 C0 8.71 0 4.42 0 0 Z M4 2 C4 3.32 4 4.64 4 6 C4.99 6 5.98 6 7 6 C7 4.68 7 3.36 7 2 C6.01 2 5.02 2 4 2 Z " fill="#7C28FE" transform="translate(270,343)"/>
<path d="M0 0 C0.99 0 1.98 0 3 0 C3 1.98 3 3.96 3 6 C4.65 6 6.3 6 8 6 C8 4.02 8 2.04 8 0 C8.99 0 9.98 0 11 0 C11 4.29 11 8.58 11 13 C10.01 13 9.02 13 8 13 C7.67 11.68 7.34 10.36 7 9 C6.01 9 5.02 9 4 9 C3.67 10.32 3.34 11.64 3 13 C2.01 13 1.02 13 0 13 C0 8.71 0 4.42 0 0 Z " fill="#9A5EFE" transform="translate(143,343)"/>
<path d="M0 0 C0.94875 0.04125 1.8975 0.0825 2.875 0.125 C3.535 1.445 4.195 2.765 4.875 4.125 C1.905 3.63 1.905 3.63 -1.125 3.125 C-0.526875 3.393125 0.07125 3.66125 0.6875 3.9375 C2.84724808 5.10993467 4.23290256 6.31869282 5.875 8.125 C5.215 9.775 4.555 11.425 3.875 13.125 C0.5 13.25 0.5 13.25 -3.125 13.125 C-3.785 12.465 -4.445 11.805 -5.125 11.125 C-5.125 10.135 -5.125 9.145 -5.125 8.125 C-4.526875 8.434375 -3.92875 8.74375 -3.3125 9.0625 C-1.03543228 10.22709704 -1.03543228 10.22709704 1.875 11.125 C1.875 10.135 1.875 9.145 1.875 8.125 C0.905625 7.8775 -0.06375 7.63 -1.0625 7.375 C-4.125 6.125 -4.125 6.125 -5.125 4.125 C-5.125 0.41389311 -3.38352144 0.13534086 0 0 Z " fill="#A26CFE" transform="translate(225.125,342.875)"/>
<path d="M0 0 C6.93359375 -0.09765625 6.93359375 -0.09765625 9 0 C10 1 10 1 10.0625 4.0625 C10.041875 5.031875 10.02125 6.00125 10 7 C9.195625 7.2475 8.39125 7.495 7.5625 7.75 C4.828919 8.72238859 4.828919 8.72238859 4.1875 11.125 C4.125625 11.74375 4.06375 12.3625 4 13 C2.68 13 1.36 13 0 13 C0 8.71 0 4.42 0 0 Z M4 2 C3.67 2.99 3.34 3.98 3 5 C4.32 5.33 5.64 5.66 7 6 C6.67 4.68 6.34 3.36 6 2 C5.34 2 4.68 2 4 2 Z " fill="#A268FE" transform="translate(127,343)"/>
<path d="M0 0 C3.3 0 6.6 0 10 0 C10 0.66 10 1.32 10 2 C8.02 2.33 6.04 2.66 4 3 C4 3.66 4 4.32 4 5 C5.65 5.33 7.3 5.66 9 6 C8.67 6.99 8.34 7.98 8 9 C5.9375 9.6875 5.9375 9.6875 4 10 C6.97 10.495 6.97 10.495 10 11 C10 11.66 10 12.32 10 13 C6.7 13 3.4 13 0 13 C0 8.71 0 4.42 0 0 Z " fill="#9C5BFE" transform="translate(286,343)"/>
<path d="M0 0 C2.97 0 5.94 0 9 0 C9 0.66 9 1.32 9 2 C7.02 2 5.04 2 3 2 C3 3.32 3 4.64 3 6 C4.65 6 6.3 6 8 6 C8 6.66 8 7.32 8 8 C6.35 8 4.7 8 3 8 C3 8.99 3 9.98 3 11 C4.98 11 6.96 11 9 11 C9 11.66 9 12.32 9 13 C6.03 13 3.06 13 0 13 C0 8.71 0 4.42 0 0 Z " fill="#8B3CFE" transform="translate(196,343)"/>
<path d="M0 0 C3.63 0 7.26 0 11 0 C11 0.66 11 1.32 11 2 C10.01 2.33 9.02 2.66 8 3 C7.67 6.3 7.34 9.6 7 13 C6.01 13 5.02 13 4 13 C4 9.37 4 5.74 4 2 C2.68 2 1.36 2 0 2 C0 1.34 0 0.68 0 0 Z " fill="#974CFE" transform="translate(236,343)"/>
<path d="M0 0 C2.6875 0.875 2.6875 0.875 5 2 C5.042721 3.66611905 5.04063832 5.33382885 5 7 C4 8 4 8 0.9375 8.0625 C-0.031875 8.041875 -1.00125 8.02125 -2 8 C-2.33 6.02 -2.66 4.04 -3 2 C-2.01 1.34 -1.02 0.68 0 0 Z " fill="#CADFFE" transform="translate(119,142)"/>
<path d="M0 0 C2.64 0.33 5.28 0.66 8 1 C8 1.99 8 2.98 8 4 C0.41 4 -7.18 4 -15 4 C-15 3.67 -15 3.34 -15 3 C-10.05 2.34 -5.1 1.68 0 1 C0 0.67 0 0.34 0 0 Z " fill="#E7F5FF" transform="translate(297,102)"/>
<path d="M0 0 C2.97 0 5.94 0 9 0 C9.66 1.65 10.32 3.3 11 5 C10.34 5.66 9.68 6.32 9 7 C8.34 6.67 7.68 6.34 7 6 C7 4.68 7 3.36 7 2 C6.01 2.33 5.02 2.66 4 3 C4 3.99 4 4.98 4 6 C3.34 6 2.68 6 2 6 C1.67 4.35 1.34 2.7 1 1 C1 4.96 1 8.92 1 13 C0.67 13 0.34 13 0 13 C0 8.71 0 4.42 0 0 Z " fill="#B27EFE" transform="translate(270,343)"/>
<path d="M0 0 C1.4540625 0.0309375 1.4540625 0.0309375 2.9375 0.0625 C3.5975 1.3825 4.2575 2.7025 4.9375 4.0625 C1.9675 3.5675 1.9675 3.5675 -1.0625 3.0625 C-0.0725 4.3825 0.9175 5.7025 1.9375 7.0625 C-0.4375 7.1875 -0.4375 7.1875 -3.0625 7.0625 C-3.7225 6.4025 -4.3825 5.7425 -5.0625 5.0625 C-4.45789299 1.07209375 -4.2025713 0.08576676 0 0 Z " fill="#945DFE" transform="translate(225.0625,342.9375)"/>
<path d="M0 0 C1.32 0 2.64 0 4 0 C4.33 1.32 4.66 2.64 5 4 C4.34 4 3.68 4 3 4 C2.67 6.97 2.34 9.94 2 13 C1.34 13 0.68 13 0 13 C0 8.71 0 4.42 0 0 Z " fill="#9027FE" transform="translate(179,343)"/>
<path d="M0 0 C0.66 0 1.32 0 2 0 C2 1.98 2 3.96 2 6 C4.31 6.66 6.62 7.32 9 8 C9 8.66 9 9.32 9 10 C3.63157895 10.35789474 3.63157895 10.35789474 1.125 8.9375 C-0.58196395 5.99772876 -0.18799766 3.32129197 0 0 Z " fill="#9948FE" transform="translate(252,346)"/>
<path d="M0 0 C0.66 0 1.32 0 2 0 C2 1.98 2 3.96 2 6 C4.31 6.66 6.62 7.32 9 8 C9 8.66 9 9.32 9 10 C3.63157895 10.35789474 3.63157895 10.35789474 1.125 8.9375 C-0.58196395 5.99772876 -0.18799766 3.32129197 0 0 Z " fill="#9948FE" transform="translate(160,346)"/>
<path d="M0 0 C0.99 0.33 1.98 0.66 3 1 C3 4.96 3 8.92 3 13 C1.68 13 0.36 13 -1 13 C-0.67 8.71 -0.34 4.42 0 0 Z " fill="#894DFE" transform="translate(187,343)"/>
<path d="M0 0 C2 2 2 2 2.1953125 3.9453125 C2.13020833 5.96354167 2.06510417 7.98177083 2 10 C2.99 10.33 3.98 10.66 5 11 C3.75 12.5625 3.75 12.5625 2 14 C-0.1875 13.6875 -0.1875 13.6875 -2 13 C-1.67257812 12.43796875 -1.34515625 11.8759375 -1.0078125 11.296875 C0.11785494 8.73140036 0.2068111 7.03157723 0.125 4.25 C0.10695313 3.45078125 0.08890625 2.6515625 0.0703125 1.828125 C0.04710937 1.22484375 0.02390625 0.6215625 0 0 Z " fill="#A6E1FE" transform="translate(297,217)"/>
<path d="M0 0 C2.40804568 2.40804568 3.00768759 4.42203775 4.125 7.625 C4.47820312 8.62789063 4.83140625 9.63078125 5.1953125 10.6640625 C5.46085938 11.43492187 5.72640625 12.20578125 6 13 C2.15625 11.2421875 2.15625 11.2421875 0.75 9.0625 C-0.34440184 6.05289493 0 3.20421755 0 0 Z " fill="#D7EFFF" transform="translate(175,270)"/>
<path d="M0 0 C-1.15173355 2.46800047 -2.04783565 4.04783565 -4 6 C-4.40047444 8.32275177 -4.7397104 10.65739357 -5 13 C-5.66 12.34 -6.32 11.68 -7 11 C-6.85273779 7.0239204 -6.56417723 4.70977135 -4.0625 1.5625 C-2 0 -2 0 0 0 Z " fill="#90CAFE" transform="translate(125,99)"/>
<path d="M0 0 C1.65 0.33 3.3 0.66 5 1 C4.67 2.32 4.34 3.64 4 5 C2.35 4.67 0.7 4.34 -1 4 C-0.67 2.68 -0.34 1.36 0 0 Z " fill="#4B91FE" transform="translate(118,144)"/>
<path d="M0 0 C0.66 0.99 1.32 1.98 2 3 C2.66 2.34 3.32 1.68 4 1 C3.6875 3.875 3.6875 3.875 3 7 C2.01 7.66 1.02 8.32 0 9 C0 8.34 0 7.68 0 7 C-0.66 6.67 -1.32 6.34 -2 6 C-1.34 4.02 -0.68 2.04 0 0 Z " fill="#C1A2FE" transform="translate(261,347)"/>
<path d="M0 0 C0.66 0.99 1.32 1.98 2 3 C2.66 2.34 3.32 1.68 4 1 C3.6875 3.875 3.6875 3.875 3 7 C2.01 7.66 1.02 8.32 0 9 C0 8.34 0 7.68 0 7 C-0.66 6.67 -1.32 6.34 -2 6 C-1.34 4.02 -0.68 2.04 0 0 Z " fill="#C1A2FE" transform="translate(169,347)"/>
<path d="M0 0 C2 3 2 3 3 6 C1.68 6 0.36 6 -1 6 C-1.66 4.35 -2.32 2.7 -3 1 C-2.01 0.67 -1.02 0.34 0 0 Z " fill="#A876FE" transform="translate(278,350)"/>
<path d="M0 0 C0.66 0.33 1.32 0.66 2 1 C0.38405168 3.04119788 -1.2856382 5.04072937 -3 7 C-3.66 7 -4.32 7 -5 7 C-3.70700306 4.11562221 -2.34058637 2.12780579 0 0 Z " fill="#CCEBFF" transform="translate(166,162)"/>
<path d="M0 0 C1.32 0.33 2.64 0.66 4 1 C3.67 3.31 3.34 5.62 3 8 C2.67 8 2.34 8 2 8 C1.34 5.36 0.68 2.72 0 0 Z " fill="#8642FE" transform="translate(260,344)"/>
<path d="M0 0 C0.66 0 1.32 0 2 0 C2 0.66 2 1.32 2 2 C4.475 2.99 4.475 2.99 7 4 C7 4.33 7 4.66 7 5 C4.625 5.125 4.625 5.125 2 5 C1.34 4.34 0.68 3.68 0 3 C0 2.01 0 1.02 0 0 Z " fill="#9C4AFE" transform="translate(220,345)"/>
<path d="M0 0 C0.99 0.33 1.98 0.66 3 1 C2.34 3.64 1.68 6.28 1 9 C0.67 9 0.34 9 0 9 C-0.87890625 2.84765625 -0.87890625 2.84765625 -1 1 C-0.67 0.67 -0.34 0.34 0 0 Z " fill="#A587FE" transform="translate(162,343)"/>
</svg>
